HIERARCHY
ROOT Hips
{
  OFFSET 46.3814 84.1815 -19.1624
  CHANNELS 6 Xposition Yposition Zposition Zrotation Xrotation Yrotation
  JOINT spine
  {
    OFFSET 0 6.24479 0.359107
    CHANNELS 3 Zrotation Xrotation Yrotation
    JOINT spine1
    {
      OFFSET 0 9.06941 0
      CHANNELS 3 Zrotation Xrotation Yrotation
      JOINT spine2
      {
        OFFSET 0 8.69014 0
        CHANNELS 3 Zrotation Xrotation Yrotation
        JOINT Neck
        {
          OFFSET 0 22.3112 1.06372
          CHANNELS 3 Zrotation Xrotation Yrotation
          JOINT Head
          {
            OFFSET 0 6.74081 0
            CHANNELS 3 Zrotation Xrotation Yrotation
            End Site
            {
              OFFSET 0 16.3165 -5.38097
            }
          }
        }
        JOINT RightShoulder
        {
          OFFSET -3.65916 9.38468 -0.509514
          CHANNELS 3 Zrotation Xrotation Yrotation
          JOINT RightArm
          {
            OFFSET 0 12.3089 0
            CHANNELS 3 Zrotation Xrotation Yrotation
            JOINT RightArmRoll
            {
              OFFSET 0 6.21375 0
              CHANNELS 3 Zrotation Xrotation Yrotation
              JOINT RightForeArm
              {
                OFFSET 0 18.0985 0
                CHANNELS 3 Zrotation Xrotation Yrotation
                JOINT RightForeArmRoll
                {
                  OFFSET 0 6.97279 0
                  CHANNELS 3 Zrotation Xrotation Yrotation
                  JOINT RightHand
                  {
                    OFFSET 0 13.9929 0
                    CHANNELS 3 Zrotation Xrotation Yrotation
                    End Site
                    {
                      OFFSET 0 0 0
                    }
                  }
                }
              }
            }
          }
        }
        JOINT LeftShoulder
        {
          OFFSET 3.65916 9.38468 -0.509514
          CHANNELS 3 Zrotation Xrotation Yrotation
          JOINT LeftArm
          {
            OFFSET 0 12.3089 0
            CHANNELS 3 Zrotation Xrotation Yrotation
            JOINT LeftArmRoll
            {
              OFFSET 0 6.21375 0
              CHANNELS 3 Zrotation Xrotation Yrotation
              JOINT LeftForeArm
              {
                OFFSET 0 18.0985 0
                CHANNELS 3 Zrotation Xrotation Yrotation
                JOINT LeftForeArmRoll
                {
                  OFFSET 0 6.97279 0
                  CHANNELS 3 Zrotation Xrotation Yrotation
                  JOINT LeftHand
                  {
                    OFFSET 0 13.9929 0
                    CHANNELS 3 Zrotation Xrotation Yrotation
                    End Site
                    {
                      OFFSET 0 0 0
                    }
                  }
                }
              }
            }
          }
        }
      }
    }
  }
  JOINT RightUpLeg
  {
    OFFSET -5.53515 -1.015 -0.851454
    CHANNELS 3 Zrotation Xrotation Yrotation
    JOINT RightUpLegRoll
    {
      OFFSET 0 16.4075 0
      CHANNELS 3 Zrotation Xrotation Yrotation
      JOINT RightLeg
      {
        OFFSET 0 -20.3181 0
        CHANNELS 3 Zrotation Xrotation Yrotation
        JOINT RightLegRoll
        {
          OFFSET 0 20.3846 0
          CHANNELS 3 Zrotation Xrotation Yrotation
          JOINT RightFoot
          {
            OFFSET 0 16.9668 0
            CHANNELS 3 Zrotation Xrotation Yrotation
            JOINT RightToeBase
            {
              OFFSET 0 14.1834 0
              CHANNELS 3 Zrotation Xrotation Yrotation
              End Site
              {
                OFFSET 0.0060118 6.8689 -0.791746
              }
            }
          }
        }
      }
    }
  }
  JOINT LeftUpLeg
  {
    OFFSET 5.53515 -1.015 -0.851454
    CHANNELS 3 Zrotation Xrotation Yrotation
    JOINT LeftUpLegRoll
    {
      OFFSET 0 16.4076 0
      CHANNELS 3 Zrotation Xrotation Yrotation
      JOINT LeftLeg
      {
        OFFSET 0 20.3181 0
        CHANNELS 3 Zrotation Xrotation Yrotation
        JOINT LeftLegRoll
        {
          OFFSET 0 20.5731 0
          CHANNELS 3 Zrotation Xrotation Yrotation
          JOINT LeftFoot
          {
            OFFSET 0 16.7783 0
            CHANNELS 3 Zrotation Xrotation Yrotation
            JOINT LeftToeBase
            {
              OFFSET 0 14.1834 0
              CHANNELS 3 Zrotation Xrotation Yrotation
              End Site
              {
                OFFSET -0.0269423 6.86889 -0.791746
              }
            }
          }
        }
      }
    }
  }
}
MOTION
Frames: 11
Frame Time: 0.00208333
44.7861 83.6953 -16.9408 0.178239 2.78525 -2.43264 0.0018169 -1.07478 -0.0102042 0.00794867 1.85327 0.000620597 0.0079484 3.49834 0.000487747 -0.867584 3.47197 0.436849 -0.271344 2.90834 0.208907 60.3358 -2.60388 -1.70046 114.001 10.4361 6.35868 -2.95472e-005 4.72888e-007 2.7584e-006 10.4671 10.0464 -1.44783 -8.10425e-006 3.04956e-006 -3 8.02894 -4.95142 0.697679 -61.5104 -7.91137 4.97005 -114.739 7.12964 -14.4084 1.49089e-015 0 -6.36111e-015 -2.7477 16.3179 0.862701 4.35119e-007 -1.73013e-006 3 -8.02994 -4.95141 -0.69766 178.034 10.8086 -0.365615 -180 7.01591e-015 179.136 179.274 16.3848 179.006 2.79751e-006 -2.08958e-006 0.264074 -19.7564 71.6142 22.8792 8.12633 25.2332 -3.4834 -177.273 4.26371 -1.82702 4.54188e-006 -4.6773e-006 -1.0109 -1.10377 -15.6647 0.699999 3.05901e-007 -6.6868e-007 -0.543472 28.8717 76.1584 -30.3827 -8.1465 25.5054 3.12396 
44.7835 83.6947 -16.9443 0.176656 2.81556 -2.43594 0.0039036 -1.07577 -0.0113063 0.0113408 1.85128 -0.00330605 0.0113913 3.49636 -0.0034985 -0.903496 3.43905 0.445847 -0.227093 2.90313 0.212347 60.2947 -2.6124 -1.70187 114.052 10.4205 6.32335 -2.95472e-005 4.72888e-007 2.7584e-006 10.482 10.0825 -1.45251 -8.10425e-006 3.04956e-006 -3 8.02894 -4.95142 0.697679 -61.5229 -7.922 4.97676 -114.763 7.11563 -14.3836 1.19768e-014 2.78299e-015 -6.36111e-015 -2.76607 16.3558 0.867433 4.35119e-007 -1.73013e-006 3 -8.02994 -4.95141 -0.69766 178.042 10.8575 -0.369885 -180 7.01591e-015 179.136 179.271 16.4325 179.008 2.79752e-006 -2.08958e-006 0.264025 -19.7933 71.6417 22.9091 8.12633 25.2332 -3.4834 -177.272 4.34728 -1.8185 4.54188e-006 -4.6773e-006 -1.01087 -1.09684 -15.7683 0.702159 3.05901e-007 -6.6868e-007 -0.547068 28.9298 76.1864 -30.4443 -8.14697 25.5121 3.11428 
44.7807 83.6849 -16.9682 0.175315 2.84636 -2.43929 0.00599672 -1.07683 -0.0124988 0.0147018 1.84916 -0.00745735 0.0148058 3.49423 -0.00770909 -0.940636 3.40552 0.455402 -0.181673 2.8982 0.216123 60.253 -2.62098 -1.70325 114.103 10.4048 6.28753 -2.95472e-005 4.72888e-007 2.7584e-006 10.4971 10.1185 -1.45719 -8.10425e-006 3.04956e-006 -3 8.02894 -4.95142 0.697679 -61.5356 -7.93362 4.98407 -114.788 7.10101 -14.359 5.06901e-015 2.98177e-015 -3.18055e-015 -2.78442 16.3943 0.872199 4.35119e-007 -1.73013e-006 3 -8.02994 -4.95141 -0.69766 178.05 10.9066 -0.373553 -180 7.01591e-015 179.136 179.267 16.4793 179.01 2.79751e-006 -2.08958e-006 0.263952 -19.8301 71.6687 22.9386 8.12633 25.2332 -3.4834 -177.272 4.43059 -1.80952 4.54188e-006 -4.6773e-006 -1.01087 -1.08987 -15.8703 0.70431 3.05901e-007 -6.6868e-007 -0.5506 28.9873 76.214 -30.5053 -8.14742 25.5186 3.10478 
44.781 83.6822 -16.9639 0.174146 2.8775 -2.44267 0.00809431 -1.07794 -0.0137547 0.0180408 1.84694 -0.0117659 0.0182005 3.49201 -0.0120767 -0.97863 3.37157 0.465347 -0.135436 2.89346 0.220135 60.2108 -2.6296 -1.70461 114.155 10.389 6.25137 -2.95472e-005 4.72888e-007 2.7584e-006 10.5124 10.1544 -1.46187 -8.10425e-006 3.04956e-006 -3 8.02894 -4.95142 0.697679 -61.5485 -7.94594 4.9918 -114.813 7.08596 -14.3347 -3.30976e-014 -1.45113e-014 -3.18055e-015 -2.80275 16.4332 0.876989 4.35119e-007 -1.73013e-006 3 -8.02994 -4.95141 -0.69766 178.057 10.9557 -0.3768 -180 7.01591e-015 179.136 179.263 16.5256 179.012 2.79752e-006 -2.08958e-006 0.263862 -19.8668 71.6955 22.9677 8.12633 25.2332 -3.4834 -177.273 4.5137 -1.80021 4.54188e-006 -4.6773e-006 -1.01087 -1.08285 -15.9711 0.706454 3.05901e-007 -6.6868e-007 -0.554088 29.0445 76.2413 -30.566 -8.14786 25.525 3.0954 
44.7732 83.6806 -16.9539 0.173075 2.90883 -2.44608 0.0101944 -1.07908 -0.0150467 0.021367 1.84466 -0.0161643 0.0215837 3.48973 -0.0165341 -1.01711 3.33737 0.475514 -0.0887317 2.88884 0.224281 60.1684 -2.63825 -1.70597 114.207 10.3733 6.21502 -2.95472e-005 4.72888e-007 2.7584e-006 10.5279 10.1904 -1.46655 -8.10425e-006 3.04956e-006 -3 8.02894 -4.95142 0.697679 -61.5615 -7.95865 4.99977 -114.837 7.07067 -14.3105 -1.49089e-015 1.98785e-016 -3.18055e-015 -2.82107 16.4723 0.881793 4.35119e-007 -1.73013e-006 3 -8.02994 -4.95141 -0.69766 178.064 11.0049 -0.379808 -180 7.01591e-015 179.136 179.258 16.5716 179.013 2.79751e-006 -2.08958e-006 0.263763 -19.9034 71.722 22.9966 8.12633 25.2332 -3.4834 -177.274 4.59671 -1.79073 4.54188e-006 -4.6773e-006 -1.01088 -1.07581 -16.0713 0.708597 3.05901e-007 -6.6868e-007 -0.557549 29.1017 76.2684 -30.6266 -8.14829 25.5314 3.08609 
44.7753 83.678 -16.9578 0.172032 2.9402 -2.44949 0.0122952 -1.08022 -0.0163478 0.0246898 1.84236 -0.0205852 0.0249637 3.48744 -0.0210138 -1.0557 3.30311 0.485737 -0.0419099 2.88424 0.228461 60.1259 -2.6469 -1.70732 114.259 10.3575 6.17862 -2.95472e-005 4.72888e-007 2.7584e-006 10.5434 10.2263 -1.47123 -8.10425e-006 3.04956e-006 -3 8.02894 -4.95142 0.697679 -61.5745 -7.97145 5.0078 -114.862 7.05531 -14.2863 -3.62782e-015 -3.37934e-015 -3.18055e-015 -2.83941 16.5115 0.886603 4.35119e-007 -1.73013e-006 3 -8.02994 -4.95141 -0.69766 178.071 11.0542 -0.382756 -180 7.01591e-015 179.136 179.253 16.6174 179.015 2.79752e-006 -2.08958e-006 0.263661 -19.9401 71.7485 23.0256 8.12633 25.2332 -3.4834 -177.274 4.67968 -1.78119 4.54188e-006 -4.6773e-006 -1.01089 -1.06876 -16.1714 0.710743 3.05901e-007 -6.6868e-007 -0.561005 29.159 76.2954 -30.6873 -8.14872 25.5377 3.07679 
44.7744 83.6682 -16.9542 0.170945 2.97149 -2.45289 0.0143945 -1.08136 -0.0176308 0.0280185 1.8401 -0.0249611 0.0283489 3.48518 -0.0254487 -1.09402 3.26897 0.495847 0.00467922 2.87958 0.232574 60.0835 -2.65554 -1.70867 114.311 10.3418 6.14232 -2.95472e-005 4.72888e-007 2.7584e-006 10.5588 10.2623 -1.47591 -8.10425e-006 3.04956e-006 -3 8.02894 -4.95142 0.697679 -61.5875 -7.98406 5.01571 -114.886 7.04007 -14.262 7.90169e-015 5.1684e-015 -3.18055e-015 -2.85775 16.5506 0.891409 4.35119e-007 -1.73013e-006 3 -8.02994 -4.95141 -0.69766 178.078 11.1033 -0.385826 -180 7.01591e-015 179.136 179.249 16.6635 179.017 2.79752e-006 -2.08958e-006 0.263564 -19.977 71.7751 23.0548 8.12633 25.2332 -3.4834 -177.275 4.76272 -1.77175 4.54188e-006 -4.6773e-006 -1.0109 -1.0617 -16.2717 0.712896 3.05901e-007 -6.6868e-007 -0.564473 29.2167 76.3225 -30.7484 -8.14915 25.5441 3.06746 
44.771 83.6656 -16.9582 0.169743 3.00252 -2.45627 0.0164907 -1.08245 -0.0188685 0.0313623 1.8379 -0.0292247 0.0317478 3.48298 -0.0297714 -1.13172 3.23514 0.505678 0.0506855 2.87479 0.236519 60.0415 -2.66414 -1.71004 114.363 10.326 6.10628 -2.95472e-005 4.72888e-007 2.7584e-006 10.5741 10.2982 -1.4806 -8.10425e-006 3.04956e-006 -3 8.02894 -4.95142 0.697679 -61.6003 -7.99618 5.02332 -114.911 7.02513 -14.2376 3.8763e-015 2.18663e-015 -3.18055e-015 -2.87611 16.5894 0.896202 4.35119e-007 -1.73013e-006 3 -8.02994 -4.95141 -0.69766 178.085 11.1525 -0.389199 -180 7.01591e-015 179.136 179.245 16.71 179.019 2.79752e-006 -2.08958e-006 0.263479 -20.0141 71.8019 23.0843 8.12633 25.2332 -3.4834 -177.276 4.84589 -1.76255 4.54188e-006 -4.6773e-006 -1.0109 -1.05466 -16.3729 0.715061 3.05901e-007 -6.6868e-007 -0.567973 29.2751 76.3498 -30.8103 -8.14958 25.5506 3.05805 
44.7594 83.6481 -16.9769 0.168352 3.03318 -2.4596 0.0185816 -1.08349 -0.0200339 0.0347307 1.83582 -0.0333085 0.0351689 3.4809 -0.0339145 -1.16842 3.20179 0.515063 0.0957588 2.86977 0.240194 59.9999 -2.6727 -1.71143 114.414 10.3103 6.07064 -2.95472e-005 4.72888e-007 2.7584e-006 10.5892 10.3342 -1.48529 -8.10425e-006 3.04956e-006 -3 8.02894 -4.95142 0.697679 -61.613 -8.0075 5.03046 -114.935 7.01066 -14.213 -8.34896e-015 -2.98177e-015 -3.18055e-015 -2.89451 16.6277 0.900972 4.35119e-007 -1.73013e-006 3 -8.02994 -4.95141 -0.69766 178.093 11.2015 -0.393057 -180 7.01591e-015 179.136 179.241 16.757 179.021 2.79751e-006 -2.08958e-006 0.263413 -20.0514 71.829 23.1144 8.12633 25.2332 -3.4834 -177.276 4.92928 -1.75371 4.54188e-006 -4.6773e-006 -1.01089 -1.04765 -16.4753 0.717242 3.05901e-007 -6.6868e-007 -0.571524 29.3343 76.3775 -30.873 -8.15002 25.5571 3.04848 
44.7594 83.6453 -16.9745 0.166703 3.0633 -2.46289 0.0206653 -1.08446 -0.0210999 0.0381329 1.83389 -0.0371452 0.0386206 3.47897 -0.0378109 -1.20376 3.16912 0.523834 0.139549 2.86446 0.243499 59.9592 -2.6812 -1.71285 114.465 10.2946 6.03554 -2.95472e-005 4.72888e-007 2.7584e-006 10.604 10.3703 -1.48999 -8.10425e-006 3.04956e-006 -3 8.02894 -4.95142 0.697679 -61.6253 -8.01774 5.03694 -114.96 6.99685 -14.188 -2.16675e-014 -7.95139e-015 -6.36111e-015 -2.91294 16.6653 0.905709 4.35119e-007 -1.73013e-006 3 -8.02994 -4.95141 -0.69766 178.101 11.2503 -0.397581 -180 7.01591e-015 179.136 179.238 16.805 179.022 2.79751e-006 -2.08958e-006 0.263373 -20.0892 71.8567 23.1453 8.12633 25.2332 -3.4834 -177.275 5.01296 -1.74539 4.54188e-006 -4.6773e-006 -1.01086 -1.04068 -16.5796 0.719444 3.05901e-007 -6.6868e-007 -0.575146 29.3947 76.4055 -30.937 -8.15048 25.5639 3.03873 
44.7574 83.6357 -16.9618 0.164722 3.09275 -2.4661 0.0227401 -1.08532 -0.0220392 0.0415783 1.83216 -0.0406674 0.0421114 3.47724 -0.0413931 -1.23735 3.1373 0.531824 0.181706 2.85875 0.246334 59.9193 -2.6896 -1.71431 114.515 10.279 6.00115 -2.95472e-005 4.72888e-007 2.7584e-006 10.6184 10.4065 -1.49469 -8.10425e-006 3.04956e-006 -3 8.02894 -4.95142 0.697679 -61.6373 -8.02659 5.04258 -114.984 6.98387 -14.1627 -5.96354e-016 -1.19271e-015 -6.36111e-015 -2.93142 16.702 0.910405 4.35119e-007 -1.73013e-006 3 -8.02994 -4.95141 -0.69766 178.111 11.2989 -0.402952 -180 7.01591e-015 179.136 179.236 16.8541 179.024 2.79752e-006 -2.08958e-006 0.263367 -20.1274 71.8849 23.1771 8.12633 25.2332 -3.4834 -177.274 5.09703 -1.73772 4.54188e-006 -4.6773e-006 -1.0108 -1.03376 -16.6862 0.721673 3.05901e-007 -6.6868e-007 -0.578857 29.4566 76.4342 -31.0026 -8.15095 25.5708 3.02872 
